<svg id="图层_1" data-name="图层 1" xmlns="http://www.w3.org/2000/svg" viewBox="0 0 200 200"><defs><style>.cls-1{fill:#fff;}</style></defs><title>music</title><path class="cls-1" d="M133.38,78.11c-3.89-5.79-5.31-13-4.65-23.36a1.13,1.13,0,0,1,0-.26,3.93,3.93,0,0,0,0-.49l-.06-.46a2.47,2.47,0,0,0-.1-.43,2,2,0,0,0-.15-.45l-.18-.39-.23-.41-.26-.36a4.6,4.6,0,0,0-.31-.35,3.26,3.26,0,0,0-.33-.31l-.37-.29-.37-.24-.47-.23a1.07,1.07,0,0,0-.22-.1l-.17,0a2.19,2.19,0,0,0-.49-.12l-.45-.07c-.08,0-.14,0-.21,0l-.28,0a3.46,3.46,0,0,0-.45,0l-.58.07-.26.06a3.91,3.91,0,0,0-.68.24l-.12.06a3.47,3.47,0,0,0-.7.41s0,0-.06,0a3.06,3.06,0,0,0-.6.54l-.1.1a4,4,0,0,0-.47.61l-.12.17a3.6,3.6,0,0,0-.29.63s-.06.09-.08.15l-29.1,79.24-.9,2c-1.68,3.77-4.59,5.84-9.14,6.49a23,23,0,0,1-7.7-.41,12.1,12.1,0,0,1-7.22-4.2,7.91,7.91,0,0,1-1.64-6.58c1-4.93,6.29-7.74,12.32-6.53l1.35.28A18.65,18.65,0,0,1,83,125.45a7.81,7.81,0,0,0,1.11.49A4.77,4.77,0,0,0,87.44,117a27.37,27.37,0,0,0-8-3.28l-1.34-.27c-11.17-2.25-21.53,3.9-23.56,14A17.44,17.44,0,0,0,58,141.82,21.82,21.82,0,0,0,71,149.51a35,35,0,0,0,6.89.74,26.85,26.85,0,0,0,3.85-.27c7.75-1.13,13.45-5.29,16.46-12l1-2.13c0-.08,0-.16.08-.21a.67.67,0,0,0,.06-.12L121.43,75.2a34.9,34.9,0,0,0,4,8.22,80.1,80.1,0,0,0,5,6.48c4.63,5.63,7,8.81,6.23,14.57a4.76,4.76,0,0,0,4.08,5.37,3.55,3.55,0,0,0,.65,0,4.78,4.78,0,0,0,4.72-4.12c1.39-10.15-3.77-16.4-8.32-21.93a68.07,68.07,0,0,1-4.41-5.72Z"/><path class="cls-1" d="M136.89,154.18A65.44,65.44,0,0,1,45.76,63.73a4.77,4.77,0,1,0-7.95-5.29A75,75,0,0,0,142.23,162.07a4.76,4.76,0,0,0-5.34-7.89ZM100.25,25A74.41,74.41,0,0,0,56.09,39.38a4.77,4.77,0,0,0,5.63,7.69,65.42,65.42,0,0,1,91.4,91.41,4.77,4.77,0,0,0,7.7,5.62A75,75,0,0,0,100.25,25Z"/></svg>